<mxfile host="app.diagrams.net" modified="2021-03-02T07:51:49.077Z" agent="5.0 (Windows NT 10.0; Win64; x64) AppleWebKit/537.36 (KHTML, like Gecko) Chrome/88.0.4324.190 Safari/537.36" etag="C0hC2gENeb5u7D8Bo6Te" version="14.4.3" type="github">
  <diagram id="v0DLQf8VWBxZvWh5IJ13" name="Page-1">
    <mxGraphModel dx="1140" dy="694" grid="1" gridSize="10" guides="1" tooltips="1" connect="1" arrows="1" fold="1" page="1" pageScale="1" pageWidth="850" pageHeight="1100" math="0" shadow="0">
      <root>
        <mxCell id="0" />
        <mxCell id="1" parent="0" />
        <mxCell id="ii3clBc2QUdMYUsTcaKd-25" value="" style="endArrow=none;dashed=1;html=1;strokeWidth=1;" parent="1" edge="1">
          <mxGeometry width="50" height="50" relative="1" as="geometry">
            <mxPoint x="85" y="640" as="sourcePoint" />
            <mxPoint x="85" y="150" as="targetPoint" />
          </mxGeometry>
        </mxCell>
        <mxCell id="ii3clBc2QUdMYUsTcaKd-2" value=":Remote Terminal" style="shape=umlLifeline;perimeter=lifelinePerimeter;container=0;collapsible=0;recursiveResize=0;rounded=0;shadow=0;strokeWidth=1;" parent="1" vertex="1">
          <mxGeometry x="245" y="80" width="100" height="560" as="geometry" />
        </mxCell>
        <mxCell id="ii3clBc2QUdMYUsTcaKd-3" value=":EEPROM" style="shape=umlLifeline;perimeter=lifelinePerimeter;container=1;collapsible=0;recursiveResize=0;rounded=0;shadow=0;strokeWidth=1;" parent="1" vertex="1">
          <mxGeometry x="375" y="80" width="100" height="560" as="geometry" />
        </mxCell>
        <mxCell id="ii3clBc2QUdMYUsTcaKd-6" value=":User" style="shape=umlActor;verticalLabelPosition=bottom;verticalAlign=top;html=1;outlineConnect=0;" parent="1" vertex="1">
          <mxGeometry x="70" y="20" width="30" height="60" as="geometry" />
        </mxCell>
        <mxCell id="ii3clBc2QUdMYUsTcaKd-7" value="" style="points=[];perimeter=orthogonalPerimeter;rounded=0;shadow=0;strokeWidth=1;" parent="1" vertex="1">
          <mxGeometry x="290" y="150" width="10" height="40" as="geometry" />
        </mxCell>
        <mxCell id="ii3clBc2QUdMYUsTcaKd-8" value="" style="verticalAlign=bottom;startArrow=none;endArrow=block;startSize=8;shadow=0;strokeWidth=1;startFill=0;exitX=0.467;exitY=0.981;exitDx=0;exitDy=0;exitPerimeter=0;" parent="1" source="ii3clBc2QUdMYUsTcaKd-9" target="ii3clBc2QUdMYUsTcaKd-7" edge="1">
          <mxGeometry x="120" y="80" as="geometry">
            <mxPoint x="105" y="150" as="sourcePoint" />
          </mxGeometry>
        </mxCell>
        <mxCell id="ii3clBc2QUdMYUsTcaKd-9" value="" style="points=[];perimeter=orthogonalPerimeter;rounded=0;shadow=0;strokeWidth=1;" parent="1" vertex="1">
          <mxGeometry x="80" y="110" width="10" height="40" as="geometry" />
        </mxCell>
        <mxCell id="ii3clBc2QUdMYUsTcaKd-10" value="Reset EEPROM request" style="text;html=1;align=center;verticalAlign=middle;resizable=0;points=[];autosize=1;" parent="1" vertex="1">
          <mxGeometry x="130" y="130" width="150" height="20" as="geometry" />
        </mxCell>
        <mxCell id="ii3clBc2QUdMYUsTcaKd-11" value="return Hv Current" style="verticalAlign=bottom;endArrow=block;shadow=0;strokeWidth=1;" parent="1" source="ii3clBc2QUdMYUsTcaKd-12" edge="1">
          <mxGeometry relative="1" as="geometry">
            <mxPoint x="295" y="365" as="sourcePoint" />
            <mxPoint x="90" y="395" as="targetPoint" />
            <Array as="points">
              <mxPoint x="140" y="395" />
            </Array>
          </mxGeometry>
        </mxCell>
        <mxCell id="ii3clBc2QUdMYUsTcaKd-12" value="" style="points=[];perimeter=orthogonalPerimeter;rounded=0;shadow=0;strokeWidth=1;" parent="1" vertex="1">
          <mxGeometry x="290" y="355" width="10" height="40" as="geometry" />
        </mxCell>
        <mxCell id="ii3clBc2QUdMYUsTcaKd-13" value="" style="verticalAlign=bottom;startArrow=none;endArrow=block;startSize=8;shadow=0;strokeWidth=1;startFill=0;exitX=0.467;exitY=0.981;exitDx=0;exitDy=0;exitPerimeter=0;" parent="1" source="ii3clBc2QUdMYUsTcaKd-14" target="ii3clBc2QUdMYUsTcaKd-12" edge="1">
          <mxGeometry x="120" y="285" as="geometry">
            <mxPoint x="105" y="355" as="sourcePoint" />
          </mxGeometry>
        </mxCell>
        <mxCell id="ii3clBc2QUdMYUsTcaKd-14" value="" style="points=[];perimeter=orthogonalPerimeter;rounded=0;shadow=0;strokeWidth=1;" parent="1" vertex="1">
          <mxGeometry x="80" y="315" width="10" height="40" as="geometry" />
        </mxCell>
        <mxCell id="ii3clBc2QUdMYUsTcaKd-15" value="&lt;font style=&quot;font-size: 12px&quot;&gt;&lt;span style=&quot;left: 240px ; top: 868.78px ; font-family: monospace ; transform: scalex(1)&quot;&gt;HV Current Range&lt;/span&gt;&lt;/font&gt;()" style="text;html=1;align=center;verticalAlign=middle;resizable=0;points=[];autosize=1;" parent="1" vertex="1">
          <mxGeometry x="125" y="335" width="140" height="20" as="geometry" />
        </mxCell>
        <mxCell id="ii3clBc2QUdMYUsTcaKd-16" value="" style="verticalAlign=bottom;startArrow=none;endArrow=block;startSize=8;shadow=0;strokeWidth=1;startFill=0;exitX=0.467;exitY=0.981;exitDx=0;exitDy=0;exitPerimeter=0;entryX=-0.071;entryY=0.02;entryDx=0;entryDy=0;entryPerimeter=0;" parent="1" edge="1" target="ii3clBc2QUdMYUsTcaKd-20">
          <mxGeometry x="120" y="392" as="geometry">
            <mxPoint x="84.66999999999996" y="461.24" as="sourcePoint" />
            <mxPoint x="409.5" y="461.24" as="targetPoint" />
          </mxGeometry>
        </mxCell>
        <mxCell id="ii3clBc2QUdMYUsTcaKd-17" value="" style="points=[];perimeter=orthogonalPerimeter;rounded=0;shadow=0;strokeWidth=1;" parent="1" vertex="1">
          <mxGeometry x="80" y="425" width="10" height="40" as="geometry" />
        </mxCell>
        <mxCell id="ii3clBc2QUdMYUsTcaKd-20" value="" style="points=[];perimeter=orthogonalPerimeter;rounded=0;shadow=0;strokeWidth=1;" parent="1" vertex="1">
          <mxGeometry x="290" y="460" width="10" height="45" as="geometry" />
        </mxCell>
        <mxCell id="20dnOyp3_jrJjr6a-Ldp-6" value="" style="points=[];perimeter=orthogonalPerimeter;rounded=0;shadow=0;strokeWidth=1;fillColor=none;" parent="1" vertex="1">
          <mxGeometry x="80" y="425" width="10" height="40" as="geometry" />
        </mxCell>
        <mxCell id="20dnOyp3_jrJjr6a-Ldp-12" value="" style="points=[];perimeter=orthogonalPerimeter;rounded=0;shadow=0;strokeWidth=1;" parent="1" vertex="1">
          <mxGeometry x="290" y="585" width="10" height="40" as="geometry" />
        </mxCell>
        <mxCell id="20dnOyp3_jrJjr6a-Ldp-29" value="" style="verticalAlign=bottom;endArrow=block;shadow=0;strokeWidth=1;" parent="1" edge="1">
          <mxGeometry x="0.0476" y="-50" relative="1" as="geometry">
            <mxPoint x="310" y="505" as="sourcePoint" />
            <mxPoint x="90" y="505" as="targetPoint" />
            <Array as="points">
              <mxPoint x="140" y="505" />
            </Array>
            <mxPoint as="offset" />
          </mxGeometry>
        </mxCell>
        <mxCell id="20dnOyp3_jrJjr6a-Ldp-30" value="&lt;font style=&quot;font-size: 12px&quot;&gt;&lt;span style=&quot;left: 240px ; top: 894.78px ; font-family: monospace ; transform: scalex(1)&quot;&gt;HV Voltage Range()&lt;/span&gt;&lt;/font&gt;" style="text;html=1;align=center;verticalAlign=middle;resizable=0;points=[];autosize=1;" parent="1" vertex="1">
          <mxGeometry x="125" y="440" width="150" height="20" as="geometry" />
        </mxCell>
        <mxCell id="20dnOyp3_jrJjr6a-Ldp-31" value="&lt;font style=&quot;font-size: 12px&quot;&gt;&lt;span style=&quot;left: 240px ; top: 894.78px ; font-family: monospace ; transform: scalex(1)&quot;&gt;return Hv Voltage&lt;/span&gt;&lt;/font&gt;" style="text;html=1;align=center;verticalAlign=middle;resizable=0;points=[];autosize=1;" parent="1" vertex="1">
          <mxGeometry x="120" y="485" width="130" height="20" as="geometry" />
        </mxCell>
        <mxCell id="20dnOyp3_jrJjr6a-Ldp-34" value="" style="verticalAlign=bottom;startArrow=none;endArrow=block;startSize=8;shadow=0;strokeWidth=1;startFill=0;exitX=0.467;exitY=0.981;exitDx=0;exitDy=0;exitPerimeter=0;entryX=0.107;entryY=0.009;entryDx=0;entryDy=0;entryPerimeter=0;" parent="1" edge="1" target="20dnOyp3_jrJjr6a-Ldp-12">
          <mxGeometry x="115.5" y="515.0699999999999" as="geometry">
            <mxPoint x="80.17000000000007" y="584.31" as="sourcePoint" />
            <mxPoint x="300" y="584" as="targetPoint" />
          </mxGeometry>
        </mxCell>
        <mxCell id="20dnOyp3_jrJjr6a-Ldp-3" value="" style="points=[];perimeter=orthogonalPerimeter;rounded=0;shadow=0;strokeWidth=1;fillColor=none;" parent="1" vertex="1">
          <mxGeometry x="80" y="545" width="10" height="40" as="geometry" />
        </mxCell>
        <mxCell id="20dnOyp3_jrJjr6a-Ldp-39" value="Temperature Range()" style="text;html=1;align=center;verticalAlign=middle;resizable=0;points=[];autosize=1;" parent="1" vertex="1">
          <mxGeometry x="130" y="565" width="140" height="20" as="geometry" />
        </mxCell>
        <mxCell id="20dnOyp3_jrJjr6a-Ldp-41" value="" style="verticalAlign=bottom;endArrow=block;shadow=0;strokeWidth=1;exitX=0.151;exitY=0.998;exitDx=0;exitDy=0;exitPerimeter=0;" parent="1" edge="1" source="20dnOyp3_jrJjr6a-Ldp-12">
          <mxGeometry x="0.0476" y="-50" relative="1" as="geometry">
            <mxPoint x="405" y="640" as="sourcePoint" />
            <mxPoint x="90" y="625" as="targetPoint" />
            <Array as="points" />
            <mxPoint as="offset" />
          </mxGeometry>
        </mxCell>
        <mxCell id="20dnOyp3_jrJjr6a-Ldp-42" value="return Temperature" style="text;html=1;align=center;verticalAlign=middle;resizable=0;points=[];autosize=1;" parent="1" vertex="1">
          <mxGeometry x="125" y="605" width="120" height="20" as="geometry" />
        </mxCell>
        <mxCell id="FEYbR9ww8mhdjt0Hv8cP-1" value="Reset EEPROM()" style="verticalAlign=bottom;endArrow=block;shadow=0;strokeWidth=1;" parent="1" target="ii3clBc2QUdMYUsTcaKd-3" edge="1">
          <mxGeometry relative="1" as="geometry">
            <mxPoint x="290" y="189" as="sourcePoint" />
            <mxPoint x="-25" y="189" as="targetPoint" />
            <Array as="points">
              <mxPoint x="405" y="189" />
            </Array>
          </mxGeometry>
        </mxCell>
        <mxCell id="UWnJr_jLfkFZoAA-NvxY-1" value="reset ok" style="verticalAlign=bottom;endArrow=block;shadow=0;strokeWidth=1;exitX=0.509;exitY=0.285;exitDx=0;exitDy=0;exitPerimeter=0;entryX=1.174;entryY=0.034;entryDx=0;entryDy=0;entryPerimeter=0;" parent="1" source="ii3clBc2QUdMYUsTcaKd-3" target="UWnJr_jLfkFZoAA-NvxY-2" edge="1">
          <mxGeometry relative="1" as="geometry">
            <mxPoint x="300" y="240" as="sourcePoint" />
            <mxPoint x="293" y="238" as="targetPoint" />
            <Array as="points">
              <mxPoint x="415" y="240" />
            </Array>
          </mxGeometry>
        </mxCell>
        <mxCell id="UWnJr_jLfkFZoAA-NvxY-2" value="" style="points=[];perimeter=orthogonalPerimeter;rounded=0;shadow=0;strokeWidth=1;" parent="1" vertex="1">
          <mxGeometry x="290" y="240" width="10" height="40" as="geometry" />
        </mxCell>
        <mxCell id="UWnJr_jLfkFZoAA-NvxY-3" value="EEPROM is reset" style="verticalAlign=bottom;endArrow=block;shadow=0;strokeWidth=1;exitX=0.526;exitY=0.988;exitDx=0;exitDy=0;exitPerimeter=0;" parent="1" edge="1" source="UWnJr_jLfkFZoAA-NvxY-2">
          <mxGeometry relative="1" as="geometry">
            <mxPoint x="310" y="281" as="sourcePoint" />
            <mxPoint x="90" y="281" as="targetPoint" />
            <Array as="points" />
          </mxGeometry>
        </mxCell>
      </root>
    </mxGraphModel>
  </diagram>
</mxfile>
